<svg width="247" height="232" viewBox="0 0 247 232" fill="none" xmlns="http://www.w3.org/2000/svg">
<path d="M232.841 0.5V42.7422L232.34 42.7412L73.9473 42.4238C65.6995 42.4239 59.3438 44.517 54.8125 48.6387L54.8027 48.6475C50.3069 52.5326 48.0011 58.9179 48.001 67.9375C48.001 76.9487 50.3024 83.4462 54.8027 87.5459L55.2324 87.9072C59.7329 91.5841 65.9518 93.4521 73.9482 93.4521H177.993C199.59 93.4522 216.394 99.2948 228.332 111.044H228.331C240.471 122.589 246.5 139.764 246.5 162.476C246.5 184.982 240.469 202.156 228.329 213.911C216.392 225.658 199.588 231.5 177.993 231.5H5.44043V189.258L5.94141 189.259L173.053 189.576L173.838 189.569C181.894 189.443 187.983 187.352 192.18 183.368C196.689 179.06 198.999 172.136 198.999 162.476C198.999 152.811 196.688 146.002 192.188 141.908L192.171 141.892C187.838 137.573 181.493 135.376 173.053 135.376H69.0068C47.4143 135.376 30.5186 129.747 18.3877 118.428L18.3809 118.422C6.43486 106.878 0.5 90.0209 0.5 67.9375C0.500077 45.8552 6.43454 29.1016 18.3838 17.7686C30.5145 6.23567 47.4117 0.50005 69.0068 0.5H232.841Z" fill="black" stroke="#FAF7F7"/>
</svg>
